<svg xmlns="http://www.w3.org/2000/svg" width="21.443" height="21.395" viewBox="0 0 21.443 21.395">
  <g id="call-answer" transform="translate(0 0)">
    <g id="Group_5" data-name="Group 5" transform="translate(0 0)">
      <g id="Group_4" data-name="Group 4" transform="translate(0 0)">
        <path id="Path_3" data-name="Path 3" d="M20.962,17.316,17.651,14a1.727,1.727,0,0,0-2.435.046l-1.668,1.668-.329-.183a16.6,16.6,0,0,1-4.013-2.9A16.7,16.7,0,0,1,6.3,8.612c-.062-.112-.121-.219-.179-.322l1.12-1.118.551-.551a1.725,1.725,0,0,0,.044-2.435L4.521.874A1.725,1.725,0,0,0,2.086.92l-.933.939.026.025A5.4,5.4,0,0,0,.409,3.241,5.624,5.624,0,0,0,.067,4.617C-.37,8.242,1.287,11.555,5.782,16.051,12,22.265,17,21.8,17.221,21.772a5.6,5.6,0,0,0,1.38-.347,5.379,5.379,0,0,0,1.352-.766l.02.018.946-.926A1.728,1.728,0,0,0,20.962,17.316Z" transform="translate(0 -0.394)" fill="#ff0c0c"/>
      </g>
    </g>
  </g>
</svg>
