<svg xmlns="http://www.w3.org/2000/svg" width="61.172" height="72.592" viewBox="0 0 61.172 72.592">
  <g id="Group_84" data-name="Group 84" transform="translate(-696.722 -1139.678)">
    <path id="Path_9" data-name="Path 9" d="M64.795,118.83a27.1,27.1,0,0,0-21.175-26.4v-3h2.353a3.529,3.529,0,1,0,0-7.058H44.6l-.84-4.706H31.711l-.84,4.706H29.5a3.529,3.529,0,0,0,0,7.058h2.353v3a27.1,27.1,0,0,0-21.175,26.4v3.529H8.328v1.176a10.6,10.6,0,0,0,9.411,10.518v4.775h40v-4.775a10.6,10.6,0,0,0,9.411-10.518v-1.176H64.795ZM33.68,80.009H41.8l.42,2.353H33.26Zm-5.354,5.882A1.177,1.177,0,0,1,29.5,84.715H45.972a1.176,1.176,0,0,1,0,2.353H29.5A1.178,1.178,0,0,1,28.327,85.891Zm5.882,3.529h7.058v2.591a26.306,26.306,0,0,0-7.058,0ZM13.033,118.83a24.7,24.7,0,1,1,49.408,0v3.529H55.2l-1.751-10.307a5.833,5.833,0,0,0-5.355-4.945,3.5,3.5,0,0,0-3.3-4.747H37.738a3.506,3.506,0,0,0-1.982.612,5.861,5.861,0,0,0-5.076-2.965H27.15v3.529a5.823,5.823,0,0,0,1.207,3.529h-.518a5.852,5.852,0,0,0-5.814,4.986l-.545,3.54a8.245,8.245,0,0,0-6,6.767H13.033ZM44.8,121.183v-1.176H42.443v1.176a3.48,3.48,0,0,0,.217,1.176H40.09V115.3a1.176,1.176,0,1,1,2.353,0v2.353H44.8V115.3a3.529,3.529,0,0,0-7.058,0v2.483a8.159,8.159,0,0,0-9.989-1.362,8.163,8.163,0,0,0-3.844-1.107l.446-2.9a3.513,3.513,0,0,1,3.489-2.993h19.8a3.506,3.506,0,0,1,3.352,2.441,4.705,4.705,0,0,0-3.839,4.617v4.706a1.176,1.176,0,1,1-2.353,0Zm-21.175-3.529a5.893,5.893,0,0,1,5.763,4.706H17.858A5.893,5.893,0,0,1,23.621,117.654Zm8.141,4.706a8.2,8.2,0,0,0-2.009-4.3,5.842,5.842,0,0,1,7.867,4.3ZM29.5,103.537v-1.176h1.176a3.534,3.534,0,0,1,3.529,3.529v1.176H33.032A3.534,3.534,0,0,1,29.5,103.537ZM44.8,107.066H37.738a1.176,1.176,0,0,1,0-2.353H44.8a1.176,1.176,0,0,1,0,2.353ZM49.5,121.183v-4.706a2.354,2.354,0,0,1,1.921-2.309l1.391,8.191H49.284A3.453,3.453,0,0,0,49.5,121.183Zm-29.41,15.293v-2.353H55.384v2.353ZM56.56,131.77H18.915a8.248,8.248,0,0,1-8.151-7.058H64.71a8.246,8.246,0,0,1-8.15,7.058Zm0,0" transform="translate(689.571 1073.441)"/>
    <path id="Path_10" data-name="Path 10" d="M2.336,74.1a6.856,6.856,0,0,0,0,9.7L4.2,85.663,5.865,84,4,82.133a4.5,4.5,0,0,1,0-6.369l.2-.2A6.808,6.808,0,0,0,6.21,70.714,6.808,6.808,0,0,0,4.2,65.866L2.336,64,.673,65.664,2.538,67.53a4.475,4.475,0,0,1,1.319,3.185A4.475,4.475,0,0,1,2.538,73.9Zm0,0" transform="translate(696.394 1085.089)"/>
    <path id="Path_11" data-name="Path 11" d="M66.538,11.764a4.5,4.5,0,0,1,0,6.369L64.673,20l1.663,1.663L68.2,19.8a6.856,6.856,0,0,0,0-9.7L68,9.9a4.5,4.5,0,0,1,0-6.369l1.866-1.866L68.2,0,66.336,1.866a6.856,6.856,0,0,0,0,9.7Zm0,0" transform="translate(641.805 1139.678)"/>
    <path id="Path_12" data-name="Path 12" d="M378.538,75.764a4.5,4.5,0,0,1,0,6.369L376.672,84l1.663,1.663L380.2,83.8a6.856,6.856,0,0,0,0-9.7l-.2-.2a4.5,4.5,0,0,1,0-6.369l1.866-1.866L380.2,64l-1.866,1.866a6.856,6.856,0,0,0,0,9.7Zm0,0" transform="translate(375.685 1085.089)"/>
    <path id="Path_13" data-name="Path 13" d="M314.336,10.1a6.856,6.856,0,0,0,0,9.7l1.866,1.866L317.865,20,316,18.133a4.5,4.5,0,0,1,0-6.369l.2-.2a6.856,6.856,0,0,0,0-9.7L314.336,0l-1.664,1.663,1.866,1.866a4.5,4.5,0,0,1,0,6.369Zm0,0" transform="translate(430.274 1139.678)"/>
    <path id="Path_14" data-name="Path 14" d="M310.91,264.015a22.165,22.165,0,0,0-6.892-16.144l-1.627,1.7a19.831,19.831,0,0,1,6.167,14.445Zm0,0" transform="translate(438.75 928.256)"/>
    <path id="Path_15" data-name="Path 15" d="M279.989,227.668A22.141,22.141,0,0,0,277.5,226l-1.176,2.036a20.224,20.224,0,0,1,2.221,1.492Zm0,0" transform="translate(460.979 946.911)"/>
  </g>
</svg>
