<svg xmlns="http://www.w3.org/2000/svg" width="57.053" height="54.01" viewBox="0 0 57.053 54.01">
  <g id="clean" transform="translate(0 0)">
    <g id="Group_16" data-name="Group 16" transform="translate(0 0)">
      <g id="Group_15" data-name="Group 15" transform="translate(0)">
        <path id="Path_6" data-name="Path 6" d="M159.774,95.655a1.16,1.16,0,0,0-.778-.5c-1.627,0-15.636-.566-15.636-16.839a.92.92,0,1,0-1.84,0c0,16.273-14.009,16.839-15.565,16.839a.8.8,0,0,0-.566.212c-.142.071-.212.212-.283.283a1.049,1.049,0,0,0,0,.92.982.982,0,0,0,.849.5h.071c1.627,0,15.565.566,15.565,16.839a.92.92,0,0,0,1.84,0c0-16.2,13.938-16.839,15.565-16.839a1.079,1.079,0,0,0,.849-.5A.87.87,0,0,0,159.774,95.655Zm-17.334,11.32a16.149,16.149,0,0,0-11.037-10.9,16.149,16.149,0,0,0,11.037-10.9,16.149,16.149,0,0,0,11.037,10.9A16.149,16.149,0,0,0,142.44,106.975Z" transform="translate(-102.89 -65.232)"/>
        <path id="Path_7" data-name="Path 7" d="M65.74,20.629a.953.953,0,0,0,.92-.991.937.937,0,0,0-.92-.92c-.849,0-8.49-.283-8.49-9.2a.92.92,0,0,0-1.84,0c0,8.915-7.641,9.2-8.49,9.2h-.071a.923.923,0,0,0-.849.92.937.937,0,0,0,.92.92c.92,0,8.49.283,8.49,9.2a.937.937,0,0,0,.92.92.816.816,0,0,0,.849-.849c0-8.915,7.641-9.2,8.49-9.2Zm-9.481,4.033a9.488,9.488,0,0,0-5.094-5.023,9.519,9.519,0,0,0,5.094-5.023,9.488,9.488,0,0,0,5.094,5.023A9.519,9.519,0,0,0,56.259,24.662Z" transform="translate(-37.864 -8.601)"/>
        <path id="Path_8" data-name="Path 8" d="M19.74,199.118c-.849,0-8.49-.283-8.49-9.2a.92.92,0,0,0-1.84,0c0,8.915-7.641,9.2-8.49,9.2H.849a.923.923,0,0,0-.849.92.937.937,0,0,0,.92.92c.92,0,8.49.283,8.49,9.2a.937.937,0,0,0,.92.92c.425.142.849-.283.849-.849,0-8.915,7.641-9.2,8.49-9.2h.071a.953.953,0,0,0,.92-.99A.937.937,0,0,0,19.74,199.118Zm-9.481,6.014a9.723,9.723,0,0,0-5.094-5.023,9.519,9.519,0,0,0,5.094-5.023,9.488,9.488,0,0,0,5.094,5.023A9.519,9.519,0,0,0,10.259,205.132Z" transform="translate(0 -157.092)"/>
      </g>
    </g>
  </g>
</svg>
