<svg xmlns="http://www.w3.org/2000/svg" width="61.26" height="68.196" viewBox="0 0 61.26 68.196">
  <g id="Group_85" data-name="Group 85" transform="translate(-1191.661 -1142.53)">
    <g id="Group_18" data-name="Group 18" transform="translate(1196.284 1180.672)">
      <g id="Group_17" data-name="Group 17" transform="translate(0)">
        <path id="Path_16" data-name="Path 16" d="M57.16,264A1.156,1.156,0,0,0,56,265.158v4.623a1.156,1.156,0,1,0,2.312,0v-4.623A1.156,1.156,0,0,0,57.16,264Z" transform="translate(-56.004 -264.002)"/>
      </g>
    </g>
    <g id="Group_20" data-name="Group 20" transform="translate(1200.907 1182.983)">
      <g id="Group_19" data-name="Group 19" transform="translate(0)">
        <path id="Path_17" data-name="Path 17" d="M89.16,280A1.156,1.156,0,0,0,88,281.158v4.623a1.156,1.156,0,1,0,2.312,0v-4.623A1.156,1.156,0,0,0,89.16,280Z" transform="translate(-88.004 -280.002)"/>
      </g>
    </g>
    <g id="Group_22" data-name="Group 22" transform="translate(1229.804 1187.606)">
      <g id="Group_21" data-name="Group 21">
        <path id="Path_18" data-name="Path 18" d="M302.432,313.582a1.156,1.156,0,0,0-1.294,1.914,6.935,6.935,0,1,1-3.876-1.182,1.156,1.156,0,0,0,0-2.312,9.247,9.247,0,1,0,5.171,1.58Z" transform="translate(-288.016 -312.002)"/>
      </g>
    </g>
    <g id="Group_24" data-name="Group 24" transform="translate(1191.661 1142.53)">
      <g id="Group_23" data-name="Group 23" transform="translate(0 0)">
        <path id="Path_19" data-name="Path 19" d="M84.716,50.484a13.864,13.864,0,0,0-7.546-8.759V16.182a1.156,1.156,0,0,0-.567-1L51.175.161A1.156,1.156,0,0,0,50,.161L24.571,15.186c-.024.014-.042.035-.065.051s-.045.035-.068.053a1.139,1.139,0,0,0-.255.282c0,.008-.014.013-.018.021V15.6a1.156,1.156,0,0,0-.131.378,1.023,1.023,0,0,1-.014.1,1.009,1.009,0,0,0-.016.1V46.232a1.156,1.156,0,0,0,.567,1L50,62.253a.95.95,0,0,0,.094.039.914.914,0,0,0,.1.042,1.031,1.031,0,0,0,.8,0,.932.932,0,0,0,.1-.042c.03-.014.062-.022.092-.039l6.9-4.079a13.864,13.864,0,0,0,26.64-7.69ZM50.587,2.5,56.6,6.05l-8.911,5.266a1.157,1.157,0,1,0,1.177,1.991L58.871,7.4l6.01,3.552L41.726,24.628l-6.01-3.552L45.4,15.355a1.157,1.157,0,0,0-1.177-1.991l-10.778,6.37-6.011-3.552ZM40.57,26.631v7.717L34.6,30.82V23.1ZM57.979,50.75a14.082,14.082,0,0,0-.38,5.021l-5.855,3.462V55.478a1.156,1.156,0,1,0-2.312,0v3.754L26.316,45.573V18.208l5.972,3.529v9.742a1.156,1.156,0,0,0,.567,1l8.282,4.895a1.156,1.156,0,0,0,1.744-1V28l6.55,3.871V50.855a1.156,1.156,0,0,0,2.312,0V31.867L72.691,19.488a1.156,1.156,0,0,0-1.177-1.99L50.587,29.865,44,25.971,67.154,12.288l7.7,4.553V40.915A13.814,13.814,0,0,0,57.979,50.75ZM71.391,65.881A11.558,11.558,0,1,1,82.949,54.323,11.558,11.558,0,0,1,71.391,65.881Z" transform="translate(-24.004 0)"/>
      </g>
    </g>
    <g id="Group_26" data-name="Group 26" transform="translate(1234.439 1193.4)">
      <g id="Group_25" data-name="Group 25">
        <path id="Path_20" data-name="Path 20" d="M328.967,352.424a1.156,1.156,0,0,0-1.606,0l-4.384,4.384-.917-.917a1.156,1.156,0,0,0-1.634,1.634l1.734,1.734a1.156,1.156,0,0,0,1.634,0l5.2-5.2A1.156,1.156,0,0,0,328.967,352.424Z" transform="translate(-320.102 -352.1)"/>
      </g>
    </g>
  </g>
</svg>
